<?xml version="1.0" encoding="UTF-8" standalone="no"?>
<svg
   version="1.0"
   width="16"
   height="16"
   viewBox="0 0 12 12.000001"
   preserveAspectRatio="xMidYMid"
   id="svg224"
   sodipodi:docname="chain.svg"
   inkscape:version="1.2.2 (b0a8486541, 2022-12-01)"
   xmlns:inkscape="http://www.inkscape.org/namespaces/inkscape"
   xmlns:sodipodi="http://sodipodi.sourceforge.net/DTD/sodipodi-0.dtd"
   xmlns="http://www.w3.org/2000/svg"
   xmlns:svg="http://www.w3.org/2000/svg">
  <defs
     id="defs228" />
  <sodipodi:namedview
     id="namedview226"
     pagecolor="#ffffff"
     bordercolor="#000000"
     borderopacity="0"
     inkscape:showpageshadow="2"
     inkscape:pageopacity="0.0"
     inkscape:pagecheckerboard="0"
     inkscape:deskcolor="#d1d1d1"
     inkscape:document-units="pt"
     showgrid="false"
     inkscape:zoom="25.249562"
     inkscape:cx="2.8119299"
     inkscape:cy="1.287151"
     inkscape:window-width="1920"
     inkscape:window-height="1008"
     inkscape:window-x="0"
     inkscape:window-y="0"
     inkscape:window-maximized="1"
     inkscape:current-layer="svg224" />
  <metadata
     id="metadata210">
Created by potrace 1.15, written by Peter Selinger 2001-2017
</metadata>
  <g
     id="g575"
     transform="matrix(0.00929524,0,0,0.01071625,0.04830118,-0.85411156)">
    <g
       transform="matrix(0.1,0,0,-0.1,0,1200.5)"
       fill="#000000"
       stroke="none"
       id="g222">
      <path
         d="m 10365,11204 c -675,-75 -1305,-475 -1808,-1148 -469,-629 -864,-1419 -1061,-2121 -35,-127 -66,-244 -66,-251 0,-3 24,8 53,24 267,153 860,282 1292,282 h 160 l 19,53 c 49,139 172,440 243,593 175,376 353,646 581,878 193,198 357,308 537,362 121,36 322,45 446,19 309,-62 550,-268 668,-570 163,-416 119,-990 -136,-1770 -135,-413 -375,-924 -573,-1220 -233,-347 -459,-564 -715,-686 -365,-174 -780,-112 -1051,156 -116,116 -166,208 -248,460 -8,22 -16,81 -20,130 -13,167 -23,188 -99,199 -164,25 -542,-154 -914,-432 -118,-88 -111,-71 -87,-244 88,-642 343,-1026 891,-1337 496,-282 1061,-380 1578,-276 517,104 1062,469 1483,994 330,411 574,848 827,1484 226,570 352,1045 412,1556 24,207 24,645 0,836 -69,538 -240,942 -551,1298 -310,354 -845,630 -1377,712 -103,15 -406,27 -484,19 z"
         id="path212" />
      <path
         d="m 8525,7840 c -616,-62 -1207,-283 -1725,-645 -226,-159 -460,-344 -660,-524 -52,-47 -96,-86 -98,-87 -2,-1 7,-85 19,-187 l 22,-186 57,52 c 32,29 141,132 242,230 102,97 187,177 190,177 2,0 -30,-152 -72,-337 -43,-186 -76,-340 -74,-341 1,-2 110,62 242,142 132,80 246,148 254,151 12,5 8,-21 -17,-117 -62,-233 -124,-473 -122,-474 1,-1 78,34 170,76 167,77 170,79 310,202 332,292 661,514 943,638 224,98 404,106 567,24 66,-34 192,-155 222,-215 28,-54 31,-105 20,-269 -6,-96 -5,-121 8,-145 24,-47 83,-111 148,-161 212,-163 500,-206 791,-117 l 87,26 20,61 c 57,174 97,353 113,503 21,202 -22,508 -98,691 -140,340 -433,627 -773,757 -166,64 -240,76 -481,80 -118,2 -255,-1 -305,-5 z"
         id="path214" />
      <path
         d="m 5413,5908 c -233,-286 -350,-456 -522,-758 -148,-260 -193,-353 -260,-532 -163,-437 -238,-919 -211,-1358 26,-402 104,-618 287,-791 80,-75 186,-144 205,-133 46,28 299,248 373,325 157,162 225,282 254,443 18,96 14,141 -14,182 -88,130 -71,324 51,567 227,453 496,863 812,1235 24,28 42,52 39,52 -4,0 -51,-18 -107,-39 -59,-23 -100,-34 -100,-27 0,6 9,110 20,231 11,121 20,232 20,247 0,25 -8,22 -262,-117 -145,-78 -265,-141 -266,-140 -2,2 25,95 61,207 118,366 126,392 123,395 -1,2 -113,-132 -247,-296 -134,-165 -248,-300 -252,-300 -5,-1 -6,2 -4,7 3,4 44,148 91,320 l 86,313 -32,45 c -17,24 -34,44 -38,44 -3,0 -51,-55 -107,-122 z"
         id="path216" />
      <path
         d="M 4270,5489 C 3667,5438 3091,5281 2415,4983 2247,4909 1870,4720 1715,4632 1600,4567 1311,4376 1205,4295 543,3791 141,3203 29,2575 3,2431 -3,2098 18,1965 64,1675 130,1468 257,1217 610,520 1166,139 2000,24 c 154,-22 589,-25 755,-6 663,77 1392,307 2080,657 812,414 1324,831 1687,1375 195,293 321,613 374,950 27,172 25,542 -4,700 -67,365 -208,645 -476,944 l -80,89 -39,-44 c -336,-381 -459,-548 -536,-733 -62,-150 -65,-167 -67,-456 -1,-261 -2,-267 -32,-380 -39,-149 -62,-208 -117,-305 -132,-230 -356,-440 -738,-689 -386,-252 -955,-525 -1374,-660 -610,-196 -1122,-239 -1483,-124 -228,73 -385,188 -504,370 -106,162 -148,307 -148,503 1,154 31,279 101,420 139,277 463,592 868,841 458,282 1282,617 1728,704 84,16 308,40 375,40 11,0 20,15 29,53 95,386 236,725 444,1065 38,63 67,115 65,116 -1,2 -46,11 -98,21 -111,21 -378,28 -540,14 z"
         id="path218" />
      <path
         d="m 7958,4657 c -35,-40 -142,-166 -237,-282 -201,-243 -417,-463 -581,-590 -63,-49 -116,-89 -116,-89 -1,-1 7,-41 18,-91 29,-134 36,-444 13,-602 -31,-217 -102,-449 -194,-630 -23,-46 -38,-83 -33,-83 4,0 62,20 128,43 511,186 922,429 1354,801 149,128 465,446 681,684 204,226 219,245 219,284 0,34 -28,54 -90,63 -127,19 -429,132 -625,234 -165,85 -281,162 -389,256 l -84,74 z"
         id="path220" />
    </g>
    <path
       style="fill:#cccccc;stroke:#ff0000;stroke-width:1.3555;stroke-opacity:1"
       d="m 944.64465,628.62763 c -15.88605,-4.54788 -30.85087,-14.21568 -38.6325,-24.95796 -3.86565,-5.33634 -3.92573,-5.69705 -3.92573,-23.58244 0,-13.08595 -0.54097,-19.20944 -1.93537,-21.90594 -1.06455,-2.05851 -6.2277,-7.7918 -11.47373,-12.74065 -7.92067,-7.47194 -11.0649,-9.46943 -18.53985,-11.77822 -17.58352,-5.431 -32.74537,-2.97885 -58.1919,9.41148 -26.0163,12.66775 -55.92877,33.3744 -86.07435,59.58427 -10.24554,8.90789 -16.20156,12.80092 -29.14329,19.04885 -8.94631,4.31906 -16.46282,7.66683 -16.70334,7.43949 -0.24054,-0.22733 2.65685,-12.31134 6.43863,-26.85335 7.04474,-27.08904 7.72553,-30.746 5.72375,-30.746 -0.63372,0 -11.36095,6.14877 -23.83829,13.66393 -12.47734,7.51516 -23.03625,13.31376 -23.46423,12.88578 -0.61132,-0.61133 9.84535,-51.59956 12.74196,-62.13164 0.35883,-1.30467 0.05,-2.37212 -0.68628,-2.37212 -0.73629,0 -11.57337,9.72058 -24.08243,21.60129 -12.50905,11.8807 -23.13972,21.35654 -23.62372,21.05741 -0.484,-0.29913 -1.66198,-8.01903 -2.61774,-17.15532 l -1.73773,-16.61145 5.9374,-5.21718 c 79.85836,-70.17141 134.80236,-100.11378 212.59386,-115.8555 17.15858,-3.47217 20.61315,-3.71466 52.92218,-3.71466 h 34.56525 l 13.91085,4.90732 c 39.57825,13.96203 72.73312,46.65749 84.98315,83.80557 7.4774,22.67513 9.731,53.19086 5.6111,75.98058 -2.8177,15.5864 -10.0887,41.05154 -12.0752,42.29047 -0.8862,0.5527 -6.87155,2.24303 -13.30085,3.75627 -14.6589,3.45022 -33.71423,3.5299 -45.3816,0.18972 z"
       id="path1204" />
    <path
       style="fill:#cccccc;stroke:#ff0000;stroke-width:1.3555;stroke-opacity:1"
       d="m 688.05078,961.00058 c 6.85295,-15.20078 9.2743,-22.01768 13.63194,-38.37848 3.71839,-13.96065 4.22414,-18.23745 4.84387,-40.96117 0.6068,-22.24958 -0.63954,-42.05566 -3.0818,-48.97395 -0.30313,-0.85868 3.24636,-4.30442 7.88777,-7.65722 14.31423,-10.34015 40.84544,-37.3023 66.32054,-67.39773 l 24.3465,-28.76217 8.36175,6.97383 c 22.45282,18.72604 61.59585,38.56308 91.72507,46.4848 17.25893,4.53778 17.62155,4.70685 17.62155,8.21516 0,2.1588 -4.23907,8.19206 -12.53835,17.84525 -19.14757,22.27113 -73.06575,75.74687 -89.802,89.06523 -33.8085,26.904 -71.74498,49.13737 -108.44017,63.55342 -27.87928,10.95263 -25.81789,10.9533 -20.87667,-0.008 z"
       id="path1206" />
    <path
       style="fill:#ff0000;stroke:#ff0000;stroke-width:1.3555;stroke-opacity:1"
       d="m 482.87874,961.9962 c -9.25351,-5.86837 -21.53189,-18.93218 -26.34563,-28.03088 -10.49376,-19.83472 -14.59317,-46.00522 -13.5611,-86.57354 1.431,-56.25003 14.43206,-103.23516 42.46571,-153.46878 19.24808,-34.49074 29.80158,-50.21754 53.31167,-79.44489 l 12.89704,-16.03338 3.07128,3.57057 c 1.68921,1.96382 3.05316,4.29903 3.03099,5.18937 -0.0221,0.89034 -3.90104,15.34325 -8.61972,32.11758 -4.71868,16.77434 -8.37515,30.73821 -8.12547,31.03082 0.9521,1.11588 5.47926,-3.88384 25.91525,-28.62034 11.59427,-14.03415 21.33844,-25.25867 21.65375,-24.94338 0.31529,0.31529 -2.7407,10.85146 -6.79109,23.41372 -4.05039,12.56225 -7.80718,24.85895 -8.34843,27.32599 l -0.98408,4.48552 9.95269,-4.99187 c 5.47398,-2.74553 17.15786,-8.94506 25.96416,-13.77675 8.80632,-4.83168 16.23953,-8.55684 16.51824,-8.27813 0.27871,0.27872 -0.41047,11.07741 -1.53152,23.9971 -1.12104,12.91969 -1.68462,23.844 -1.25239,24.27623 0.43224,0.43223 4.18694,-0.28621 8.3438,-1.59654 4.15686,-1.31034 7.74137,-2.18187 7.96557,-1.93674 0.22421,0.24512 -4.72946,6.85043 -11.00815,14.67845 -30.90769,38.53451 -67.9998,99.38892 -76.98302,126.30069 -4.84392,14.5113 -4.82085,28.6971 0.0635,39.0705 3.01103,6.39481 3.40979,8.71155 2.80328,16.28708 -1.35309,16.90042 -9.55454,31.70122 -27.35041,49.35818 -11.33456,11.24609 -33.91652,30.59542 -35.70687,30.59542 -0.57127,0 -3.87836,-1.8009 -7.34909,-4.002 z"
       id="path1208" />
    <path
       style="fill:#00ff00;stroke:#ff0000;stroke-width:1.3555;stroke-opacity:1"
       d="m 203.08838,1197.7332 c -27.77883,-3.447 -58.75212,-12.2405 -81.09321,-23.0228 -39.505655,-19.0664 -68.019564,-46.6965 -91.137598,-88.3128 -39.8543815,-71.7443 -39.474466,-149.21185 1.068057,-217.78458 28.372682,-47.9889 76.543441,-93.17881 137.370491,-128.86991 28.48018,-16.71115 82.53931,-42.07864 116.71476,-54.76896 68.70941,-25.51378 139.7994,-37.60167 188.39819,-32.03455 6.70062,0.76757 12.71556,1.92819 13.36653,2.57917 0.67443,0.67444 -3.31191,9.09058 -9.26692,19.56474 -16.43728,28.91116 -28.56861,58.07373 -36.67574,88.16494 -1.79258,6.65352 -3.73221,12.54895 -4.3103,13.10095 -0.57808,0.55201 -9.44417,1.96132 -19.70243,3.13181 -28.52742,3.25505 -56.54346,11.18565 -98.59953,27.91094 -67.88057,26.99545 -111.07618,52.3324 -145.42427,85.30052 -23.47675,22.53353 -37.62678,44.59178 -42.41709,66.1233 -3.0037,13.50106 -2.09058,36.72526 1.93456,49.20283 6.8372,21.1946 23.64283,41.1124 43.2757,51.2898 35.26143,18.279 89.70245,18.1359 152.6996,-0.4014 65.36059,-19.2328 144.06116,-59.93577 189.3366,-97.92267 25.5671,-21.45128 38.82515,-40.26233 46.68065,-66.23258 3.33269,-11.0178 3.75561,-14.94555 4.66173,-43.29367 0.93616,-29.28816 1.21655,-31.74927 4.62932,-40.63202 4.81115,-12.52252 11.28784,-23.91995 20.94423,-36.8569 9.49938,-12.72657 36.6854,-44.50624 38.07301,-44.50624 0.54056,0 4.199,3.65986 8.12986,8.13301 27.80985,31.64652 42.62254,62.93995 47.65979,100.68652 2.32829,17.44703 0.78734,58.60268 -2.77718,74.1732 -15.47099,67.5804 -59.25324,127.26245 -129.06466,175.93545 -58.78612,40.9861 -140.27703,77.8253 -213.4888,96.5109 -41.77286,10.6616 -60.00227,13.1988 -98.05015,13.6468 -18.26539,0.215 -37.58622,-0.1521 -42.9352,-0.8158 z"
       id="path1279" />
    <path
       style="fill:#cccccc;stroke:#ff0000;stroke-width:1.3555;stroke-opacity:1"
       d="m 480.32263,959.253 c -9.26914,-6.88838 -20.62092,-20.34165 -25.05165,-29.68935 -3.94407,-8.32095 -9.57405,-29.38868 -10.65154,-39.85875 -0.88619,-8.61113 -0.9241,-54.6105 -0.0527,-64.00115 0.34588,-3.72763 0.97782,-9.5224 1.40431,-12.87727 0.4265,-3.35486 1.00802,-7.92968 1.2923,-10.16627 1.00955,-7.94284 6.2918,-30.01389 10.30625,-43.06301 5.82701,-18.94092 15.91854,-42.12928 27.86209,-64.02163 17.75137,-32.53797 29.17182,-49.519 56.11803,-83.44168 l 10.29116,-12.95559 2.29633,3.04431 c 1.26298,1.67437 2.29454,4.14952 2.29235,5.50033 -0.002,1.35081 -3.66026,15.87549 -8.12903,32.27706 -4.46878,16.40157 -8.12685,29.97354 -8.12903,30.15991 -0.002,0.18638 0.76663,0.33888 1.70848,0.33888 0.94186,0 11.4537,-11.54896 23.35964,-25.66435 11.90594,-14.11539 21.78807,-25.52345 21.96025,-25.35125 0.17221,0.1722 -2.36296,8.82377 -5.6337,19.22571 -9.64985,30.68935 -10.27712,33.14732 -8.45468,33.12989 0.89173,-0.009 12.55644,-5.77251 25.92159,-12.80886 21.60537,-11.37459 28.17618,-13.97766 25.87195,-10.24936 -0.38682,0.6259 -1.01024,5.92103 -1.38539,11.76698 -2.26174,35.24485 -2.28367,32.99477 0.3216,32.99477 1.3302,0 4.50903,-0.59955 7.06407,-1.33232 2.55504,-0.73278 4.8382,-1.13964 5.07371,-0.90414 0.23551,0.2355 -4.14325,6.32315 -9.73058,13.5281 -30.31188,39.08769 -62.67816,91.30274 -73.76309,118.99863 -6.67676,16.68198 -7.6642,31.99593 -2.88873,44.80031 7.58252,20.33077 0.11753,41.3535 -22.98412,64.72732 -14.21682,14.38441 -34.18551,31.28243 -36.96687,31.28243 -1.13876,0 -5.33409,-2.42535 -9.32296,-5.38965 z"
       id="path1281" />
    <path
       style="fill:#999999;stroke:#ff0000;stroke-width:1.3555;stroke-opacity:1"
       d="m 206.71402,1196.4585 c -24.88343,-2.1739 -58.57869,-11.3839 -82.58494,-22.573 -42.295673,-19.7138 -76.366216,-54.9311 -98.861412,-102.189 -30.1268672,-63.2906 -30.2141153,-125.28065 -0.26228,-186.35068 32.2453,-65.74629 99.829522,-125.28831 191.197152,-168.44556 49.2362,-23.25659 83.32717,-36.43724 121.69947,-47.05287 51.75891,-14.31902 106.84097,-20.02962 142.31778,-14.75475 7.13615,1.06104 7.44335,-0.15444 -6.53529,25.85899 -12.70395,23.64128 -21.98151,45.75583 -29.73464,70.87727 -3.1062,10.0646 -6.15044,19.56523 -6.76496,21.11252 -0.95966,2.41627 -3.09717,3.0589 -15.14808,4.55416 -46.45878,5.76456 -99.00437,23.54869 -161.31468,54.59717 -40.84626,20.35328 -67.85839,39.3357 -93.41743,65.6481 -19.38022,19.95142 -30.31126,36.77835 -36.02185,55.45095 -3.44243,11.25608 -3.41814,41.2314 0.0428,52.7937 6.49764,21.7074 24.45401,43.8912 43.58456,53.8455 37.93194,19.7375 97.31203,18.8621 163.39307,-2.4089 51.38475,-16.5403 101.49909,-40.5655 146.96638,-70.45675 23.15295,-15.22132 37.42732,-26.66497 50.90099,-40.80682 12.33196,-12.94358 17.70329,-20.54858 23.73721,-33.60818 8.19826,-17.7441 9.90885,-26.82592 11.38494,-60.4446 1.08246,-24.6541 1.86961,-32.06725 4.09036,-38.52196 3.9546,-11.49423 12.47168,-26.68965 22.02351,-39.29238 9.43254,-12.44531 35.22538,-42.79359 36.37077,-42.79446 0.41698,-3.2e-4 3.5154,3.2018 6.88544,7.11581 38.89901,45.17802 52.59718,88.54141 47.42237,150.12187 -6.67704,79.45687 -61.80916,155.95167 -153.33322,212.74697 -75.08986,46.597 -177.35842,85.1394 -248.06339,93.4885 -16.295,1.9242 -64.67881,2.8247 -79.97461,1.4884 z"
       id="path1283" />
    <path
       style="fill:#999999;stroke:#ff0000;stroke-width:1.3555;stroke-opacity:1"
       d="m 940.04048,772.11388 c -27.31523,-3.34584 -54.67815,-11.80329 -80.6523,-24.9284 -36.8013,-18.59619 -60.49988,-39.11115 -77.00656,-66.66153 -11.22779,-18.73987 -21.63614,-53.06089 -23.52682,-77.57866 l -0.816,-10.58121 12.0429,-8.83506 c 41.00535,-30.08295 82.47863,-47.9034 93.21465,-40.053 1.76528,1.29076 2.931,5.6373 4.44308,16.56544 4.55107,32.89312 17.55555,55.66317 40.58887,71.06878 15.47603,10.35102 28.32097,14.04243 49.33373,14.17767 14.14957,0.0911 18.62032,-0.41264 27.11002,-3.05442 43.98925,-13.68821 80.25365,-52.59217 114.53645,-122.87315 24.1167,-49.4402 41.1915,-100.38339 49.5216,-147.7497 4.1392,-23.53617 5.0785,-57.15972 2.0952,-75.00104 -7.4139,-44.33859 -29.1256,-72.24628 -65.1684,-83.76587 -8.8355,-2.82392 -13.6056,-3.47696 -25.7544,-3.52586 -31.7832,-0.12795 -50.0322,8.04916 -77.76792,34.84686 C 948.3216,276.93067 924.3117,317.4757 898.7382,385.1632 l -5.63437,14.91298 -11.43586,0.29951 c -45.31102,1.1867 -97.00987,11.36789 -125.48602,24.71227 -7.9338,3.7179 -11.3337,4.75281 -11.3337,3.44994 0,-4.03802 12.46132,-44.96421 19.0689,-62.62728 23.92695,-63.96031 62.80822,-133.71477 101.08995,-181.35923 44.70067,-55.63322 99.08857,-90.507426 158.7379,-101.784782 18.0673,-3.415801 53.8641,-2.085828 75.4604,2.80361 36.6872,8.306019 71.2406,24.402872 99.2353,46.229172 28.9811,22.59535 54.0854,59.46409 66.8391,98.16131 15.9363,48.35379 17.9149,112.83037 5.4076,176.21524 -14.1441,71.68013 -48.9949,160.17801 -87.157,221.32109 -27.6352,44.27691 -67.0752,85.96743 -103.8732,109.80043 -25.1129,16.26487 -54.5383,28.44908 -79.2969,32.83455 -14.87792,2.63533 -46.50228,3.67437 -60.31982,1.98187 z"
       id="path1285" />
  </g>
</svg>
