<?xml version="1.0" encoding="UTF-8" standalone="no"?>
<svg
   width="32.0px"
   height="32.0px"
   id="Layer_1"
   data-name="Layer 1"
   viewBox="0 0 32 32"
   version="1.1"
   sodipodi:docname="cut.svg"
   inkscape:version="1.1.2 (0a00cf5339, 2022-02-04)"
   xmlns:inkscape="http://www.inkscape.org/namespaces/inkscape"
   xmlns:sodipodi="http://sodipodi.sourceforge.net/DTD/sodipodi-0.dtd"
   xmlns:xlink="http://www.w3.org/1999/xlink"
   xmlns="http://www.w3.org/2000/svg"
   xmlns:svg="http://www.w3.org/2000/svg"
   xmlns:rdf="http://www.w3.org/1999/02/22-rdf-syntax-ns#"
   xmlns:cc="http://creativecommons.org/ns#"
   xmlns:dc="http://purl.org/dc/elements/1.1/">
  <sodipodi:namedview
     pagecolor="#ffffff"
     bordercolor="#666666"
     borderopacity="1"
     objecttolerance="10"
     gridtolerance="10"
     guidetolerance="10"
     inkscape:pageopacity="0"
     inkscape:pageshadow="2"
     inkscape:window-width="1920"
     inkscape:window-height="1007"
     id="namedview16"
     showgrid="false"
     inkscape:zoom="15.012282"
     inkscape:cx="6.7611307"
     inkscape:cy="12.389855"
     inkscape:window-x="0"
     inkscape:window-y="0"
     inkscape:window-maximized="1"
     inkscape:current-layer="Layer_1"
     inkscape:document-rotation="0"
     inkscape:snap-bbox="true"
     inkscape:snap-bbox-edge-midpoints="true"
     inkscape:pagecheckerboard="0" />
  <metadata
     id="metadata19">
    <rdf:RDF>
      <cc:Work
         rdf:about="">
        <dc:format>image/svg+xml</dc:format>
        <dc:type
           rdf:resource="http://purl.org/dc/dcmitype/StillImage" />
        <dc:title>astrometry dark</dc:title>
      </cc:Work>
    </rdf:RDF>
  </metadata>
  <defs
     id="defs4">
    <style
       id="style2">.cls-1{fill:#0971b8;}.cls-2{fill:#8e2f88;}.cls-3{fill:#4e4d4d;}</style>
  </defs>
  <title
     id="title6">astrometry dark</title>
  <a
     xlink:title="Plot #1"
     id="a1892"
     transform="matrix(0.02501457,0,0,0.02703563,-0.84920899,-2.3684239)"
     style="stroke-width:54.3952;stroke-miterlimit:4;stroke-dasharray:none;stroke:#583ec1;stroke-opacity:1">
    <g
       style="color:#ffffff;fill:none;stroke:#583ec1;stroke-width:54.3952;stroke-linecap:butt;stroke-linejoin:miter;stroke-miterlimit:4;stroke-dasharray:none;stroke-opacity:1"
       id="g1886" />
    <g
       style="color:#ff0000;fill:none;stroke:#583ec1;stroke-width:54.3952;stroke-linecap:butt;stroke-linejoin:miter;stroke-miterlimit:4;stroke-dasharray:none;stroke-opacity:1"
       id="g1890">
      <path
         stroke="#808080"
         d="m 124.32638,1123.4257 h 2.8 2.7 2.8 2.7 2.8 2.7 2.8 2.7 2.8 2.7 2.8 2.8 2.7 2.8 2.7 2.8 2.7 2.8 2.7 2.8 2.7 2.8 2.8 2.7 2.8 2.7 2.8 2.7 2.8 2.7 2.8 2.7 2.8 2.8 2.7 2.8 2.7 2.8 2.7 2.8 2.7 2.8 2.7 2.8 2.8 2.7 2.8 2.7 2.8 2.7 2.8 2.7 2.8 2.8 2.7 2.8 2.7 2.8 2.7 2.8 2.7 2.8 2.7 2.8 2.8 2.7 2.8 2.7 2.8 2.7 2.8 2.7 2.8 2.7 2.8 2.8 2.7 l 2.8,-0.1 h 2.7 2.8 2.7 2.8 2.7 2.8 l 2.7,-0.1 h 2.8 2.8 l 2.7,-0.1 h 2.8 2.7 l 2.8,-0.1 2.7,-0.1 h 2.8 l 2.7,-0.1 2.8,-0.1 2.7,-0.1 2.8,-0.1 2.8,-0.1 2.7,-0.2 2.8,-0.2 2.7,-0.1 2.8,-0.3 2.7,-0.2 2.8,-0.3 2.7,-0.3 2.8,-0.3 2.7,-0.4 2.8,-0.4 2.8,-0.4 2.7,-0.6 2.8,-0.5 2.7,-0.7 2.8,-0.7 2.7,-0.8 2.8,-0.8 2.7,-1 2.8,-1 2.7,-1.2 2.8,-1.3 2.8,-1.4 2.7,-1.5 2.8,-1.7 2.7,-1.8 2.8,-2 2.7,-2.2 2.8,-2.3 2.7,-2.6 2.8,-2.8 2.7,-3 2.8,-3.2 2.8,-3.5 2.7,-3.8 2.8,-4.1 2.7,-4.4 2.8,-4.7 2.7,-5 2.8,-5.4 2.7,-5.7 2.8,-6.2 2.7,-6.5 2.8,-6.9 2.8,-7.4 2.7,-7.8 2.8,-8.2 2.7,-8.70005 2.8,-9.2 2.7,-9.7 2.8,-10.1 2.7,-10.7 2.8,-11.1 2.8,-11.7 2.7,-12.2 2.8,-12.7 2.7,-13.1 2.8,-13.7 2.7,-14.2 2.8,-14.7 2.7,-15.2 2.8,-15.6 2.7,-16.1 2.8,-16.4 2.8,-17 2.7,-17.2 2.8,-17.7 2.7,-17.9 2.8,-18.3 2.7,-18.5 2.8,-18.7 2.7,-18.9 2.8,-19.1 2.7,-19.1 2.8,-19.2 2.8,-19.1 2.7,-19.2 2.8,-18.9 2.7,-18.9 2.8,-18.6 2.7,-18.3 2.8,-18 2.7,-17.6 2.8,-17.1 2.7,-16.7 2.8,-16.1 2.8,-15.4 2.7,-14.8 2.8,-14.1 2.7,-13.3 2.8,-12.5 2.7,-11.6 2.8,-10.7 2.7,-9.8 2.8,-8.7 2.7,-7.8 2.8,-6.7 2.8,-5.6 2.7,-4.5 2.8,-3.4 2.7,-2.3 2.8,-1.2 h 2.7 l 2.8,1.2 2.7,2.3 2.8,3.4 2.7,4.5 2.8,5.6 2.8,6.7 2.7,7.8 2.8,8.7 2.7,9.8 2.8,10.7 2.7,11.6 2.8,12.5 2.7,13.3 2.8,14.1 2.7,14.8 2.8,15.4 2.8,16.1 2.7,16.7 2.8,17.1 2.7,17.6 2.8,18 2.7,18.3 2.8,18.6 2.7,18.9 2.8,18.9 2.7,19.2 2.8,19.1 2.8,19.2 2.7,19.1 2.8,19.1 2.7,18.9 2.8,18.7 2.7,18.5 2.8,18.3 2.7,17.9 2.8,17.7 2.7,17.2 2.8,17 2.8,16.4 2.7,16.1 2.8,15.6 2.7,15.2 2.8,14.7 2.7,14.2 2.8,13.7 2.7,13.1 2.8,12.7 2.7,12.2 2.8,11.7 2.8,11.1 2.7,10.7 2.8,10.1 2.7,9.7 2.8,9.2 2.7,8.70005 2.8,8.2 2.7,7.8 2.8,7.4 2.8,6.9 2.7,6.5 2.8,6.2 2.7,5.7 2.8,5.4 2.7,5 2.8,4.7 2.7,4.4 2.8,4.1 2.7,3.8 2.8,3.5 2.8,3.2 2.7,3 2.8,2.8 2.7,2.6 2.8,2.3 2.7,2.2 2.8,2 2.7,1.8 2.8,1.7 2.7,1.5 2.8,1.4 2.8,1.3 2.7,1.2 2.8,1 2.7,1 2.8,0.8 2.7,0.8 2.8,0.7 2.7,0.7 2.8,0.5 2.7,0.6 2.8,0.4 2.8,0.4 2.7,0.4 2.8,0.3 2.7,0.3 2.8,0.3 2.7,0.2 2.8,0.3 2.7,0.1 2.8,0.2 2.7,0.2 2.8,0.1 2.8,0.1 2.7,0.1 2.8,0.1 2.7,0.1 h 2.8 l 2.7,0.1 2.8,0.1 h 2.7 2.8 l 2.7,0.1 h 2.8 2.8 l 2.7,0.1 h 2.8 2.7 2.80002 2.7 2.8 2.7 l 2.8,0.1 h 2.7 2.8 2.8 2.7 2.8 2.7 2.8 2.7 2.8 2.7 2.8 2.7 2.8 2.8 2.7 2.8 2.7 2.8 2.7 2.8 2.7 2.8 2.7 2.8 2.8 2.7 2.8 2.7 2.8 2.7 2.8 2.7 2.8 2.8 2.7 2.8 2.7 2.8 2.7 2.8 2.7 2.8 2.7 2.8 2.8 2.7 2.8 2.7 2.8 2.7 2.8 2.7 2.8 2.7 2.8 2.8 2.7 2.8 2.7 2.8 2.7 2.8 2.7 2.8 2.7 2.8 2.8 2.7 2.8 2.7 2.8 2.7 2.8 2.7 2.8 2.7 2.8"
         id="path1888"
         style="display:inline;fill:none;stroke:#583ec1;stroke-width:54.3952;stroke-miterlimit:4;stroke-dasharray:none;stroke-opacity:1"
         inkscape:label="path1888" />
    </g>
  </a>
  <g
     transform="matrix(0.17831225,0,0,-0.19950185,-1142.4283,1280.0507)"
     fill="#000000"
     stroke="none"
     id="g4444"
     style="fill:#40bf80;fill-opacity:1">
    <path
       d="m 6561.8304,6306.2396 c -0.3653,-0.083 -0.6276,-0.4927 -0.5788,-0.906 0.011,-0.1039 0.7175,-1.6513 5.6956,-12.471 5.4354,-11.8113 5.6883,-12.3569 5.7745,-12.4404 0.1143,-0.1099 0.2941,-0.2016 0.4328,-0.2158 0.2211,-0.026 0.4834,0.081 0.6258,0.2545 0.058,0.071 1.4446,3.0704 5.7519,12.4322 5.4784,11.909 5.6752,12.3427 5.6864,12.473 0.028,0.3523 -0.1424,0.6638 -0.444,0.8206 -0.1105,0.055 -0.1387,0.061 -0.2998,0.061 -0.148,0 -0.1949,-0.01 -0.2811,-0.053 -0.056,-0.026 -2.5461,-1.8202 -5.5327,-3.9825 l -5.4278,-3.9337 -5.4279,3.9337 c -2.9864,2.1623 -5.4764,3.954 -5.5327,3.9825 -0.1142,0.055 -0.3147,0.075 -0.4422,0.045 z"
       id="path4442"
       style="fill:#40bf80;fill-opacity:1;stroke-width:0.00195314" />
  </g>
  <path
     d="m 0.49754719,21.924768 c -0.065142,0.01656 -0.11190878,0.09829 -0.10320274,0.180749 0.002007,0.02072 0.12794344,0.329436 1.01559475,2.487987 0.9691985,2.356376 1.0142936,2.465226 1.0296636,2.481883 0.02038,0.02191 0.052438,0.04022 0.077178,0.04304 0.039425,0.0053 0.086191,-0.01616 0.1115878,-0.05077 0.010293,-0.01421 0.2575894,-0.612549 1.0256342,-2.480246 0.9768653,-2.375867 1.0119572,-2.462392 1.0139552,-2.488387 0.00495,-0.07029 -0.025396,-0.132434 -0.07917,-0.163712 -0.0197,-0.01092 -0.024727,-0.01212 -0.053454,-0.01212 -0.026386,0 -0.034758,0.0019 -0.050124,0.01057 -0.010031,0.0053 -0.4540008,0.363133 -0.9865477,0.794518 L 2.5308191,23.51311 1.5629581,22.72833 C 1.0304472,22.296958 0.58644966,21.93951 0.57641028,21.933825 c -0.0203677,-0.01091 -0.0561145,-0.01497 -0.0788496,-0.009 z"
     id="path4442-3"
     style="stroke-width:0.000368381;stroke:#000000;stroke-opacity:1;fill:#40bf80;fill-opacity:1" />
  <path
     fill="url(#SVGID_95_)"
     d="m 22.296726,19.774038 -4.796527,1.11583 -1.030153,5.196003 c -0.043,0.217489 -0.220396,0.373825 -0.427836,0.373825 -0.205563,0 -0.383379,-0.155826 -0.425921,-0.373825 l -1.030628,-5.196003 -4.7970124,-1.11583 c -0.2007629,-0.04661 -0.3441799,-0.239244 -0.3441799,-0.462385 0,-0.223152 0.1434192,-0.415784 0.3441799,-0.462904 l 4.7970124,-1.115314 1.030628,-5.196004 c 0.04257,-0.218028 0.220395,-0.373318 0.425921,-0.373318 0.207465,0 0.384814,0.155296 0.427836,0.373318 l 1.030153,5.196004 4.796527,1.115314 c 0.201738,0.04712 0.345623,0.239731 0.345623,0.462904 0,0.222661 -0.143866,0.415267 -0.345623,0.462385 z"
     id="path1760"
     style="display:inline;fill:#a3a3a3;fill-opacity:1;stroke-width:0.995024;enable-background:new;stroke:#cccccc;stroke-opacity:1" />
</svg>
