<?xml version="1.0" encoding="UTF-8" standalone="no"?>
<svg
   width="32.0px"
   height="32.0px"
   id="Capa_1"
   data-name="Capa 1"
   viewBox="0 0 32 32"
   version="1.1"
   sodipodi:docname="eyedropper.svg"
   inkscape:version="1.1.2 (0a00cf5339, 2022-02-04)"
   xmlns:inkscape="http://www.inkscape.org/namespaces/inkscape"
   xmlns:sodipodi="http://sodipodi.sourceforge.net/DTD/sodipodi-0.dtd"
   xmlns="http://www.w3.org/2000/svg"
   xmlns:svg="http://www.w3.org/2000/svg"
   xmlns:rdf="http://www.w3.org/1999/02/22-rdf-syntax-ns#"
   xmlns:cc="http://creativecommons.org/ns#"
   xmlns:dc="http://purl.org/dc/elements/1.1/">
  <defs
     id="defs10" />
  <sodipodi:namedview
     pagecolor="#ffffff"
     bordercolor="#666666"
     borderopacity="1"
     objecttolerance="10"
     gridtolerance="10"
     guidetolerance="10"
     inkscape:pageopacity="0"
     inkscape:pageshadow="2"
     inkscape:window-width="1920"
     inkscape:window-height="1007"
     id="namedview8"
     showgrid="false"
     inkscape:zoom="11.494153"
     inkscape:cx="20.401677"
     inkscape:cy="8.0910703"
     inkscape:window-x="0"
     inkscape:window-y="0"
     inkscape:window-maximized="1"
     inkscape:current-layer="g910"
     inkscape:pagecheckerboard="0" />
  <metadata
     id="metadata23">
    <rdf:RDF>
      <cc:Work
         rdf:about="">
        <dc:format>image/svg+xml</dc:format>
        <dc:type
           rdf:resource="http://purl.org/dc/dcmitype/StillImage" />
        <dc:title>histo</dc:title>
      </cc:Work>
    </rdf:RDF>
  </metadata>
  <title
     id="title6">histo</title>
  <g
     id="g924"
     transform="matrix(-0.22438998,0,0,0.23942975,27.678793,4.1519929)">
    <g
       id="g922">
      <g
         id="g910">
        <path
           fill="none"
           d="M 36.231,33.836 24.803,22.664 21.244,19.234 c -0.573,-0.575 -1.572,-0.575 -2.148,0 -0.577,0.577 -0.609,1.51 -0.033,2.086 l 2.191,2.206 12.388,12.394 c 0.29,0.288 1.172,0.431 1.55,0.431 0.379,0 0.366,-0.144 1.551,-0.43 v -0.002 c -0.003,-0.576 0.064,-1.506 -0.512,-2.083 z"
           id="path894" />
        <path
           fill="none"
           d="m 15.905,14.021 c -0.673,-0.67 -1.762,-0.67 -2.435,10e-4 -0.67,0.671 -0.672,1.761 0,2.434 0.454,0.452 1.095,0.573 1.672,0.416 l 1.175,-1.178 c 0.162,-0.578 0.041,-1.217 -0.412,-1.673 z"
           id="path896" />
        <path
           fill="none"
           d="m 48.234,31.748 -8.346,8.346 24.773,24.771 c 1.733,0.571 8.866,3.302 17.803,11.912 l 2.45,-2.452 C 76.304,65.387 73.575,58.257 73.002,56.523 Z m 22.941,27.117 c -0.288,0.287 -0.665,0.433 -1.043,0.433 -0.375,0 -0.755,-0.146 -1.041,-0.433 L 54.49,44.265 c -0.575,-0.575 -0.575,-1.508 0,-2.085 0.576,-0.577 1.51,-0.577 2.087,0 l 14.598,14.599 c 0.579,0.576 0.579,1.51 0,2.086 z"
           id="path898" />
        <path
           d="m 31.547,40.094 4.171,-4.171 c -0.289,0.287 -0.666,0.43 -1.043,0.43 -0.376,0 -0.755,-0.143 -1.043,-0.431 L 21.239,23.527 19.033,21.32 c -0.576,-0.574 -0.576,-1.508 0,-2.086 0.576,-0.575 1.508,-0.575 2.085,0 l 3.431,3.43 11.172,11.172 c 0.574,0.576 0.574,1.506 0.001,2.084 L 48.236,23.407 28.419,3.593 28.412,3.599 C 28.37,3.554 28.333,3.506 28.289,3.462 c -4.607,-4.608 -12.076,-4.608 -16.685,0 -4.609,4.607 -4.609,12.079 0,16.686 0.042,0.045 0.091,0.081 0.137,0.124 L 11.733,20.28 Z M 13.471,16.456 c -0.672,-0.672 -0.67,-1.762 0,-2.434 0.671,-0.672 1.761,-0.672 2.435,-10e-4 0.453,0.457 0.573,1.095 0.414,1.672 -0.076,0.277 -0.198,0.544 -0.417,0.761 -0.216,0.22 -0.483,0.34 -0.759,0.418 -0.578,0.157 -1.219,0.035 -1.673,-0.416 z"
           id="path900"
           style="fill:#333333" />
        <path
           d="M 88.035,73.29 C 78.061,63.316 75.746,55.418 75.726,55.343 75.657,55.095 75.527,54.874 75.346,54.693 L 50.32,29.662 l 4.172,-4.17 c 1.152,-1.153 1.152,-3.02 0,-4.171 -1.152,-1.151 -3.021,-1.153 -4.172,0 L 29.46,42.18 c -1.153,1.153 -1.153,3.019 0,4.171 0.577,0.576 1.331,0.863 2.086,0.863 0.754,0 1.508,-0.286 2.086,-0.863 l 4.17,-4.172 25.031,25.028 c 0.179,0.178 0.402,0.311 0.646,0.378 0.081,0.024 7.978,2.336 17.955,12.312 0.273,0.276 0.65,0.433 1.041,0.433 0.392,0 0.767,-0.156 1.042,-0.433 l 4.518,-4.52 c 0.575,-0.576 0.575,-1.511 0,-2.087 z m -5.57,3.487 C 73.53,68.167 66.398,65.437 64.664,64.865 L 39.89,40.094 l 8.346,-8.346 24.77,24.774 c 0.571,1.733 3.302,8.863 11.911,17.802 z"
           id="path902"
           style="fill:#333333" />
        <polygon
           points="35.72,35.921 35.721,35.92 35.72,35.922 "
           id="polygon904"
           style="fill:#333333" />
        <path
           d="m 16.319,15.692 -1.175,1.178 c 0.275,-0.077 0.544,-0.198 0.76,-0.418 0.217,-0.216 0.338,-0.482 0.415,-0.76 z"
           id="path906"
           style="fill:#333333" />
        <path
           d="m 56.577,42.18 c -0.576,-0.577 -1.509,-0.577 -2.087,0 -0.575,0.576 -0.575,1.509 0,2.085 l 14.601,14.6 c 0.286,0.287 0.665,0.433 1.041,0.433 0.378,0 0.755,-0.146 1.043,-0.433 0.576,-0.576 0.576,-1.51 0,-2.087 z"
           id="path908"
           style="fill:#333333" />
      </g>
      <g
         id="g914">
        <path
           d="m 88.312,87.932 c 0,0 3.64,3.64 3.64,6.067 0,2.425 -1.648,3.64 -3.677,3.64 -2.032,0 -3.604,-1.215 -3.604,-3.64 -0.001,-2.428 3.641,-6.067 3.641,-6.067 m 0,-3.353 -1.675,1.676 c -1.018,1.017 -4.337,4.58 -4.337,7.744 0,3.536 2.458,6.008 5.975,6.008 3.562,0 6.046,-2.472 6.046,-6.008 0,-3.163 -3.317,-6.728 -4.334,-7.744 z"
           id="path912"
           style="fill:#ff0000" />
      </g>
      <path
         d="m 42.644,44.933 c -0.577,0.576 -0.577,1.509 0,2.086 0.576,0.576 1.509,0.576 2.085,0 l 2.753,-2.752 c 0.287,-0.288 0.433,-0.666 0.433,-1.042 0,-0.378 -0.146,-0.755 -0.433,-1.044 -0.576,-0.575 -1.509,-0.575 -2.086,0 z"
         id="path916"
         style="fill:#333333" />
      <path
         d="m 47.382,49.672 c -0.577,0.576 -0.577,1.509 0,2.085 0.576,0.576 1.509,0.576 2.085,0 l 2.752,-2.751 c 0.287,-0.288 0.433,-0.666 0.433,-1.042 0,-0.378 -0.146,-0.755 -0.433,-1.044 -0.574,-0.575 -1.508,-0.575 -2.085,0 z"
         id="path918"
         style="fill:#333333" />
      <path
         d="m 52.121,54.411 c -0.576,0.575 -0.576,1.509 0,2.085 0.576,0.576 1.51,0.576 2.086,0 l 2.752,-2.751 c 0.287,-0.288 0.433,-0.667 0.433,-1.043 0,-0.378 -0.146,-0.755 -0.433,-1.044 -0.575,-0.575 -1.509,-0.575 -2.085,0 z"
         id="path920"
         style="fill:#333333" />
    </g>
  </g>
</svg>
