<?xml version="1.0" encoding="UTF-8" standalone="no"?>
<!-- Created with Inkscape (http://www.inkscape.org/) -->

<svg
   width="30.000002mm"
   height="30.000002mm"
   viewBox="0 0 30.000002 30.000002"
   version="1.1"
   id="svg892"
   sodipodi:docname="frame-max.svg"
   inkscape:version="1.1.2 (0a00cf5339, 2022-02-04)"
   xmlns:inkscape="http://www.inkscape.org/namespaces/inkscape"
   xmlns:sodipodi="http://sodipodi.sourceforge.net/DTD/sodipodi-0.dtd"
   xmlns="http://www.w3.org/2000/svg"
   xmlns:svg="http://www.w3.org/2000/svg">
  <sodipodi:namedview
     id="namedview894"
     pagecolor="#505050"
     bordercolor="#ffffff"
     borderopacity="1"
     inkscape:pageshadow="0"
     inkscape:pageopacity="0"
     inkscape:pagecheckerboard="1"
     inkscape:document-units="mm"
     showgrid="false"
     inkscape:zoom="0.75046163"
     inkscape:cx="-37.976625"
     inkscape:cy="283.15905"
     inkscape:window-width="1920"
     inkscape:window-height="1019"
     inkscape:window-x="0"
     inkscape:window-y="0"
     inkscape:window-maximized="1"
     inkscape:current-layer="layer1"
     fit-margin-top="0"
     fit-margin-left="0"
     fit-margin-right="0"
     fit-margin-bottom="0" />
  <defs
     id="defs889" />
  <g
     inkscape:label="Calque 1"
     inkscape:groupmode="layer"
     id="layer1">
    <rect
       style="fill:none;fill-opacity:1;stroke:#08ff01;stroke-width:0.486316;stroke-opacity:1"
       id="rect2032"
       width="29.513685"
       height="29.513685"
       x="0.24315581"
       y="0.24315581" />
    <rect
       style="fill:none;stroke:#fd0900;stroke-width:0.424798;stroke-opacity:1"
       id="rect999"
       width="22.678288"
       height="15.900819"
       x="0.92668319"
       y="6.6876812" />
    <rect
       style="fill:none;stroke:#808080;stroke-width:0.425509;stroke-opacity:1"
       id="rect999-8"
       width="22.933258"
       height="15.77656"
       x="4.5702457"
       y="-0.24195565"
       transform="matrix(0.9638537,0.26643207,-0.18696216,0.98236712,0,0)" />
    <rect
       style="fill:none;stroke:#808080;stroke-width:0.425082;stroke-opacity:1"
       id="rect999-8-9"
       width="22.77796"
       height="15.852528"
       x="3.1824632"
       y="13.919024"
       transform="matrix(0.98588402,-0.16742968,0.11613484,0.99323346,0,0)" />
    <path
       style="fill:#ffaaaa;fill-opacity:1;stroke:none;stroke-width:0.63453;stroke-opacity:1"
       d="M 3.6809336,6.2747401 C 3.7033329,6.1939455 3.9188715,5.0701577 4.1599079,3.7774353 4.4009445,2.4847126 4.6241222,1.3977189 4.6558586,1.361894 4.6978777,1.3144615 22.518754,6.1640287 23.084333,6.3768058 c 0.04617,0.017371 -4.309871,0.034563 -9.680091,0.03821 -9.260451,0.00628 -9.7619343,-9.455e-4 -9.7233084,-0.1402739 z"
       id="path2617" />
    <path
       style="fill:#ffaaaa;fill-opacity:1;stroke:none;stroke-width:0.63453;stroke-opacity:1"
       d="M 3.3279954,16.744099 C 2.5267795,16.520426 1.8515695,16.317752 1.8275289,16.293712 1.7906669,16.25685 3.4128262,7.5055611 3.5368498,7.0721986 3.5765841,6.9333623 4.1223716,6.9252993 13.480449,6.9252993 h 9.901558 l -0.02293,1.4862632 -0.02293,1.4862631 -9.233733,1.5715324 c -5.0785508,0.864343 -9.30928,1.583732 -9.4016175,1.598643 -0.2036009,0.03288 -0.2020238,0.08654 0.071719,2.440473 0.1294543,1.113185 0.1631341,1.655316 0.1025109,1.650089 -0.049658,-0.0043 -0.7458267,-0.190793 -1.5470425,-0.414464 z"
       id="path2693" />
    <path
       style="fill:#ffaaaa;fill-opacity:1;stroke:none;stroke-width:0.63453;stroke-opacity:1"
       d="M 1.1332298,14.648058 V 6.9252993 h 0.9691485 0.9691486 l -0.058047,0.3147861 c -0.031926,0.1731324 -0.4457422,2.3546023 -0.9195915,4.8477106 -0.4738492,2.493108 -0.8541002,4.540632 -0.8450023,4.550055 0.0091,0.0094 0.846164,0.247557 1.8601468,0.529186 1.0139828,0.281628 1.8659213,0.538339 1.8931964,0.570469 0.027274,0.03213 0.1539635,0.983887 0.28153,2.115019 0.1275655,1.131133 0.2516245,2.160484 0.275687,2.287448 l 0.04375,0.230844 H 3.368213 1.1332298 Z"
       id="path2732" />
    <path
       style="fill:#ffaaaa;fill-opacity:1;stroke:none;stroke-width:0.63453;stroke-opacity:1"
       d="M 14.455031,19.808689 C 9.5704088,18.458558 5.547439,17.327584 5.515098,17.295411 5.4678231,17.248386 4.9924318,13.550935 5.0271916,13.500625 c 0.01896,-0.02745 18.3092234,-3.118094 18.3305234,-3.097453 0.01185,0.01149 0.01185,2.684754 0,5.940594 l -0.02156,5.919706 z"
       id="path2771" />
    <path
       style="fill:#ffaaaa;fill-opacity:1;stroke:none;stroke-width:0.63453;stroke-opacity:1"
       d="m 6.076612,22.349831 c -0.02017,-0.04572 -0.5521679,-4.471215 -0.539637,-4.48903 0.0126,-0.01791 16.02357,4.392555 16.204269,4.463708 0.04617,0.01818 -3.457403,0.03604 -7.785715,0.03968 -4.3283138,0.0036 -7.8738255,-0.0028 -7.878917,-0.01436 z"
       id="path2810" />
    <path
       style="fill:#ffaaaa;fill-opacity:1;stroke:none;stroke-width:0.63453;stroke-opacity:1"
       d="m 6.459994,25.833467 -0.3348915,-2.917021 2.4357162,-0.02086 c 1.339645,-0.01147 5.3229333,-0.03036 8.8517543,-0.04197 l 6.416035,-0.02111 0.105506,-0.629573 c 0.05803,-0.346264 0.605948,-3.260643 1.217599,-6.476397 l 1.112091,-5.8468247 0.334,-0.053409 c 0.184076,-0.029437 0.355962,-0.01756 0.382927,0.026462 0.06485,0.1058644 1.810585,15.1074467 1.76353,15.1545017 -0.02898,0.02898 -21.7708826,3.743227 -21.9115215,3.743227 -0.02082,0 -0.1885551,-1.312658 -0.3727455,-2.91702 z"
       id="path2849" />
    <path
       style="fill:#ffaaaa;fill-opacity:1;stroke:none;stroke-width:0.63453;stroke-opacity:1"
       d="m 23.888419,14.966647 -0.0066,-4.67602 0.272813,-0.04881 c 1.3102,-0.234417 1.573933,-0.2645179 1.573933,-0.179638 0,0.117392 -1.757443,9.385755 -1.80071,9.496548 -0.01803,0.04617 -0.03576,-2.020266 -0.03941,-4.592078 z"
       id="path2888" />
    <path
       style="fill:#ffaaaa;fill-opacity:1;stroke:none;stroke-width:0.63453;stroke-opacity:1"
       d="m 23.881792,8.1754632 c 0,-1.3527954 0.01871,-1.5967203 0.119477,-1.5580504 0.06572,0.025213 0.566224,0.1668817 1.112246,0.314812 0.546022,0.1479303 1.028129,0.3008003 1.071348,0.339711 0.127561,0.1148449 -0.290107,2.1616717 -0.450586,2.2081438 -0.162472,0.047052 -1.653019,0.2992821 -1.76858,0.2992821 -0.05298,0 -0.08391,-0.5910704 -0.08391,-1.6038985 z"
       id="path2927" />
  </g>
</svg>
