<?xml version="1.0" encoding="UTF-8" standalone="no"?>
<!-- Created with Inkscape (http://www.inkscape.org/) -->

<svg
   width="29.992607mm"
   height="29.891777mm"
   viewBox="0 0 29.992607 29.891777"
   version="1.1"
   id="svg892"
   sodipodi:docname="frame-cog.svg"
   inkscape:version="1.1.2 (0a00cf5339, 2022-02-04)"
   xmlns:inkscape="http://www.inkscape.org/namespaces/inkscape"
   xmlns:sodipodi="http://sodipodi.sourceforge.net/DTD/sodipodi-0.dtd"
   xmlns="http://www.w3.org/2000/svg"
   xmlns:svg="http://www.w3.org/2000/svg">
  <sodipodi:namedview
     id="namedview894"
     pagecolor="#505050"
     bordercolor="#ffffff"
     borderopacity="1"
     inkscape:pageshadow="0"
     inkscape:pageopacity="0"
     inkscape:pagecheckerboard="1"
     inkscape:document-units="mm"
     showgrid="false"
     inkscape:zoom="4.7272476"
     inkscape:cx="78.375416"
     inkscape:cy="84.298525"
     inkscape:window-width="1920"
     inkscape:window-height="1019"
     inkscape:window-x="0"
     inkscape:window-y="0"
     inkscape:window-maximized="1"
     inkscape:current-layer="layer1"
     showguides="true"
     inkscape:guide-bbox="true"
     fit-margin-top="0"
     fit-margin-left="0"
     fit-margin-right="0"
     fit-margin-bottom="0" />
  <defs
     id="defs889" />
  <g
     inkscape:label="Calque 1"
     inkscape:groupmode="layer"
     id="layer1"
     transform="translate(-3.0000004,-2.9171712)">
    <rect
       style="fill:none;stroke:#fd0900;stroke-width:0.445192;stroke-opacity:1"
       id="rect999"
       width="23.806885"
       height="16.63636"
       x="3.2225964"
       y="9.1671257"
       inkscape:export-filename="/home/cyril/Images/cog.png"
       inkscape:export-xdpi="30"
       inkscape:export-ydpi="30" />
    <rect
       style="fill:none;stroke:#808080;stroke-width:0.44591;stroke-opacity:1"
       id="rect999-8"
       width="24.068842"
       height="16.508287"
       x="7.4218807"
       y="1.2462182"
       transform="matrix(0.964082,0.26560477,-0.1875669,0.98225183,0,0)"
       inkscape:export-filename="/home/cyril/Images/cog.png"
       inkscape:export-xdpi="30"
       inkscape:export-ydpi="30" />
    <rect
       style="fill:none;stroke:#808080;stroke-width:0.44548;stroke-opacity:1"
       id="rect999-8-9"
       width="23.909281"
       height="16.586586"
       x="5.3247123"
       y="17.081921"
       transform="matrix(0.98597622,-0.16688587,0.11651888,0.99318848,0,0)"
       inkscape:export-filename="/home/cyril/Images/cog.png"
       inkscape:export-xdpi="30"
       inkscape:export-ydpi="30" />
    <ellipse
       style="fill:#808080;fill-opacity:1;stroke:#808080;stroke-width:0.499051;stroke-opacity:1"
       id="path3909"
       cx="16.794252"
       cy="13.93037"
       inkscape:export-filename="/home/cyril/Images/cog.png"
       inkscape:export-xdpi="30"
       inkscape:export-ydpi="30"
       rx="0.24994415"
       ry="0.24910904" />
    <ellipse
       style="fill:#ffaaaa;fill-opacity:1;stroke:#808080;stroke-width:0.499051;stroke-opacity:1"
       id="path3909-4-3"
       cx="20.114882"
       cy="21.295677"
       inkscape:export-filename="/home/cyril/Images/cog.png"
       inkscape:export-xdpi="30"
       inkscape:export-ydpi="30"
       rx="0.24994415"
       ry="0.24910904" />
    <rect
       style="fill:none;stroke:#00ff00;stroke-width:0.445192;stroke-opacity:1"
       id="rect999-3"
       width="23.806885"
       height="16.63636"
       x="5.6576972"
       y="9.3245468"
       inkscape:export-filename="/home/cyril/Images/cog.png"
       inkscape:export-xdpi="30"
       inkscape:export-ydpi="30" />
    <path
       style="fill:#ffaaaa;fill-opacity:1;stroke:none;stroke-width:0.367037;stroke-opacity:1"
       d="M 6.8703706,20.002101 C 6.5493624,19.912432 6.2046431,19.81646 6.1043278,19.788825 l -0.182391,-0.05024 V 14.650561 9.5625408 H 16.35471 26.787484 v 1.4775682 1.477568 l -0.109436,0.02572 c -0.155645,0.03657 -9.263869,1.575812 -9.324636,1.575812 -0.02764,0 -0.05027,-0.08604 -0.05027,-0.191197 0,-0.454505 -0.595443,-0.677213 -0.903516,-0.337934 -0.09635,0.106106 -0.128679,0.476681 -0.05475,0.627536 0.03124,0.06374 -0.621888,0.185446 -4.646125,0.865757 -2.5753579,0.435372 -4.6906081,0.79912 -4.7005551,0.808329 -0.00995,0.0092 0.09445,0.969825 0.2319915,2.134703 0.1375422,1.164878 0.244172,2.122635 0.236955,2.128346 -0.00722,0.0057 -0.2757655,-0.06298 -0.5967742,-0.152643 z"
       id="path6065" />
    <path
       style="fill:#ffaaaa;fill-opacity:1;stroke:none;stroke-width:0.367037;stroke-opacity:1"
       d="m 17.303144,22.88235 c -5.122759,-1.413519 -9.3174013,-2.572856 -9.3214264,-2.576302 -0.02209,-0.01891 -0.4702739,-4.005779 -0.4521359,-4.022033 0.011945,-0.0107 4.3006123,-0.742313 9.5303743,-1.625799 5.229763,-0.883488 9.557904,-1.617466 9.618092,-1.631064 l 0.109436,-0.02472 v 6.229975 c 0,5.9029 -0.0045,6.229716 -0.08512,6.224979 -0.04681,-0.0027 -4.276465,-1.161514 -9.399224,-2.575034 z m 3.173605,-1.250147 c 0.369477,-0.404162 -0.06436,-1.013505 -0.571285,-0.802404 -0.169623,0.07064 -0.316351,0.285717 -0.316351,0.463723 0,0.172993 0.144792,0.391814 0.307132,0.464166 0.211767,0.09438 0.420824,0.04919 0.580504,-0.125485 z m -2.768022,-3.486595 c 0.207549,-0.07864 0.323982,-0.244622 0.323982,-0.461838 0,-0.601658 -0.808419,-0.737088 -0.980612,-0.164277 -0.07513,0.249938 0.03504,0.500498 0.263623,0.599525 0.189998,0.08231 0.237478,0.08553 0.393007,0.02659 z M 15.2451,18.048101 c 0.205563,-0.124922 0.274862,-0.266498 0.243719,-0.497914 -0.03075,-0.228506 -0.143226,-0.364446 -0.346094,-0.418302 -0.482966,-0.128215 -0.859489,0.406305 -0.556571,0.790118 0.182968,0.231827 0.412641,0.275778 0.658946,0.126098 z"
       id="path6141" />
    <path
       style="fill:#ffaaaa;fill-opacity:1;stroke:none;stroke-width:0.367037;stroke-opacity:1"
       d="m 8.5953143,25.547215 c -9.5e-4,-0.0067 -0.1276327,-1.075551 -0.2815584,-2.3753 -0.2391454,-2.019344 -0.2688514,-2.359697 -0.2041671,-2.339236 0.041635,0.01317 3.8398692,1.060997 8.4405222,2.328503 4.600652,1.267508 8.430484,2.32365 8.510736,2.346983 0.08493,0.02469 -3.325303,0.04425 -8.158964,0.0468 -4.567681,0.0024 -8.3056382,-0.0011 -8.3065687,-0.0077 z"
       id="path6180" />
    <path
       style="fill:#ffaaaa;fill-opacity:1;stroke:none;stroke-width:0.367037;stroke-opacity:1"
       d="m 5.9219368,22.896442 v -2.662891 l 0.4255793,0.117769 c 0.2340687,0.06477 0.5954014,0.16392 0.802962,0.220327 0.3024328,0.08219 0.3817791,0.12314 0.3995221,0.206196 0.012175,0.057 0.1336626,1.074355 0.2699678,2.260784 0.1363058,1.186429 0.2602634,2.238945 0.275462,2.338925 l 0.027635,0.181782 H 7.0224999 5.9219368 Z"
       id="path6219" />
    <path
       style="fill:#ffaaaa;fill-opacity:1;stroke:none;stroke-width:0.367037;stroke-opacity:1"
       d="m 27.328462,25.49874 c 0.02355,-0.113311 0.447626,-2.332866 0.9424,-4.932345 0.494775,-2.599479 0.908056,-4.759046 0.918404,-4.799037 0.01035,-0.03999 0.02135,2.179563 0.02445,4.932344 l 0.0056,5.005057 H 28.2525 27.285643 Z"
       id="path6258" />
    <path
       style="fill:#ffaaaa;fill-opacity:1;stroke:none;stroke-width:0.367037;stroke-opacity:1"
       d="m 27.279501,18.041149 -0.0056,-5.118665 0.936275,-0.153934 c 0.51495,-0.08466 0.952689,-0.153515 0.972752,-0.153004 0.103799,0.0026 -0.04241,0.873124 -0.912053,5.430143 -0.521514,2.732785 -0.956642,5.001421 -0.966949,5.041413 -0.0103,0.03999 -0.02128,-2.230686 -0.02438,-5.045953 z"
       id="path6297" />
    <path
       style="fill:#ffaaaa;fill-opacity:1;stroke:none;stroke-width:0.367037;stroke-opacity:1"
       d="M 27.27386,10.992558 V 9.5625408 h 0.972753 0.972752 v 1.2766052 1.276604 l -0.890933,0.153411 c -0.490014,0.08438 -0.927752,0.153412 -0.972753,0.153412 -0.07482,0 -0.08182,-0.122366 -0.08182,-1.430015 z"
       id="path6336" />
    <path
       style="fill:#333333;stroke:#808080;stroke-width:0.39871;stroke-linecap:butt;stroke-linejoin:miter;stroke-miterlimit:4;stroke-dasharray:none;stroke-opacity:1"
       d="m 16.803412,14.443657 -1.502938,3.186767 4.34412,3.169916 z"
       id="path6613" />
    <ellipse
       style="fill:#ffaaaa;fill-opacity:1;stroke:#ff0101;stroke-width:0.499051;stroke-opacity:1"
       id="path3909-4"
       cx="14.991241"
       cy="17.615185"
       inkscape:export-filename="/home/cyril/Images/cog.png"
       inkscape:export-xdpi="30"
       inkscape:export-ydpi="30"
       rx="0.24994415"
       ry="0.24910904" />
    <ellipse
       style="fill:#ffaaaa;fill-opacity:1;stroke:#08ff01;stroke-width:0.499051;stroke-opacity:1"
       id="path3909-4-3-3"
       cx="17.113073"
       cy="17.541277"
       inkscape:export-filename="/home/cyril/Images/cog.png"
       inkscape:export-xdpi="30"
       inkscape:export-ydpi="30"
       rx="0.24994415"
       ry="0.24910904" />
    <path
       style="fill:#ffaaaa;fill-opacity:1;stroke:none;stroke-width:0.300088;stroke-miterlimit:4;stroke-dasharray:none;stroke-opacity:1"
       d="m 54.195134,60.282838 c -3.699574,-2.70184 -6.722709,-4.927821 -6.718078,-4.946625 0.0046,-0.0188 1.058307,-2.261022 2.341502,-4.98271 l 2.333083,-4.948523 0.06952,0.159087 c 0.03823,0.0875 2.01841,4.517473 4.400395,9.844391 4.908427,10.976894 4.383731,9.792457 4.336564,9.789276 -0.02007,-0.0014 -3.063408,-2.213056 -6.762981,-4.914896 z m -0.251458,-3.215267 c 1.152894,-0.395994 1.642537,-1.725043 1.024233,-2.7801 -0.06041,-0.103089 -0.215944,-0.284404 -0.345621,-0.402921 -0.952369,-0.870413 -2.413165,-0.58703 -2.992256,0.580473 -0.134359,0.270882 -0.157356,0.362084 -0.172811,0.685349 -0.04286,0.896384 0.435875,1.616503 1.275425,1.918521 0.318688,0.114644 0.875174,0.114037 1.21103,-0.0013 z"
       id="path8071"
       transform="matrix(0.26458333,0,0,0.26458333,3.0000004,2.9171712)" />
  </g>
</svg>
