<?xml version="1.0" encoding="UTF-8" standalone="no"?>
<svg
   width="32.0px"
   height="32.0px"
   id="Capa_1"
   data-name="Capa 1"
   viewBox="0 0 32 32"
   version="1.1"
   sodipodi:docname="histo-orig.svg"
   inkscape:version="1.1.2 (0a00cf5339, 2022-02-04)"
   xmlns:inkscape="http://www.inkscape.org/namespaces/inkscape"
   xmlns:sodipodi="http://sodipodi.sourceforge.net/DTD/sodipodi-0.dtd"
   xmlns="http://www.w3.org/2000/svg"
   xmlns:svg="http://www.w3.org/2000/svg"
   xmlns:rdf="http://www.w3.org/1999/02/22-rdf-syntax-ns#"
   xmlns:cc="http://creativecommons.org/ns#"
   xmlns:dc="http://purl.org/dc/elements/1.1/">
  <defs
     id="defs10" />
  <sodipodi:namedview
     pagecolor="#ffffff"
     bordercolor="#666666"
     borderopacity="1"
     objecttolerance="10"
     gridtolerance="10"
     guidetolerance="10"
     inkscape:pageopacity="0"
     inkscape:pageshadow="2"
     inkscape:window-width="1745"
     inkscape:window-height="1007"
     id="namedview8"
     showgrid="false"
     inkscape:zoom="11.494153"
     inkscape:cx="20.358176"
     inkscape:cy="8.09107"
     inkscape:window-x="0"
     inkscape:window-y="0"
     inkscape:window-maximized="0"
     inkscape:current-layer="Capa_1"
     inkscape:pagecheckerboard="0" />
  <metadata
     id="metadata23">
    <rdf:RDF>
      <cc:Work
         rdf:about="">
        <dc:format>image/svg+xml</dc:format>
        <dc:type
           rdf:resource="http://purl.org/dc/dcmitype/StillImage" />
        <dc:title>histo</dc:title>
      </cc:Work>
    </rdf:RDF>
  </metadata>
  <title
     id="title6">histo</title>
  <path
     class="cls-1"
     d="M 32.006681,32.085225 H 0.0030949 V 7.3295774e-4 H 2.0033204 V 30.079946 H 32.006681 Z"
     id="path8"
     style="fill:#92aeba;stroke-width:0.0625861" />
  <path
     class="cls-3"
     d="m 25.098417,20.71386 c -0.676269,-1.565943 -1.391762,-3.221143 -2.440645,-4.585078 -0.007,-0.0094 -0.01452,-0.01918 -0.02214,-0.02858 -0.03605,-0.04619 -0.07212,-0.09239 -0.108811,-0.137803 l -0.04429,-0.0552 c -0.03035,-0.03719 -0.06327,-0.07399 -0.09173,-0.1104 l -0.05251,-0.06224 c -0.03985,-0.04697 -0.08097,-0.09396 -0.122724,-0.140152 -0.02974,-0.03406 -0.06327,-0.06733 -0.09173,-0.100611 l -0.04239,-0.04619 c -0.03479,-0.03641 -0.06896,-0.07282 -0.104385,-0.108834 l -0.0215,-0.02232 C 21.114817,14.45518 20.080485,13.782217 18.750088,13.424398 l -0.0291,-0.0078 q -0.08541,-0.02271 -0.172704,-0.04345 l -0.05883,-0.0137 c -0.05693,-0.01331 -0.113221,-0.02623 -0.170805,-0.03915 l -0.01393,-0.0027 c -0.110073,-0.02271 -0.222042,-0.04267 -0.33591,-0.06147 l -0.110711,-0.01723 -0.136637,-0.01918 -0.132851,-0.01604 c -0.04239,-0.0051 -0.08477,-0.01018 -0.126525,-0.01449 -0.06326,-0.0067 -0.126524,-0.01213 -0.19421,-0.01723 l -0.133489,-0.0098 c -0.06706,-0.0043 -0.135389,-0.0086 -0.204335,-0.01136 l -0.04174,-0.0024 c 0,0 0,0 0,0 -0.13539,-0.0055 -0.272664,-0.009 -0.413105,-0.009 h -0.126524 c -5.35828,0.0027 -7.0960843,4.025645 -8.6301879,7.574462 -1.1127761,2.573236 -2.2622432,5.233379 -4.3081334,5.233379 v 1.60157 c 4.0323133,0 5.3772635,-3.118183 6.8050813,-6.420367 1.33356,-3.084122 2.709508,-6.270029 5.997226,-6.385517 l 0.389696,0.0074 v -0.0066 a 3.0150616,1.8658204 0 0 1 0.58201,0.05011 c 0.03415,0.0051 0.06833,0.01057 0.101847,0.01683 l 0.02402,0.0039 c 1.614446,0.292048 2.724057,1.415612 3.614153,2.868415 l 0.03035,0.04972 0.03035,0.0505 c 0.608581,1.01786 1.114675,2.188795 1.614446,3.345243 1.426557,3.301398 2.774031,6.420366 6.806986,6.420366 v -1.601615 c -2.045897,0 -3.195997,-2.660143 -4.308141,-5.233378 z"
     id="path12"
     style="fill:#8cb28c;stroke-width:0.0497656" />
  <path
     class="cls-4"
     d="M 11.107028,27.5488 C 9.8779362,27.5488 9.503907,22.610303 9.0713141,16.890612 8.6958384,11.932825 8.2287831,5.7638188 7.2510519,5.7638188 c -0.97773,0 -1.4459913,6.1701392 -1.820502,11.1267932 C 4.997957,22.609168 4.6239278,27.5488 3.3950765,27.5488 v -1.815416 c 0.5829746,0 1.000143,-5.513188 1.2772918,-9.161605 0.4689826,-6.207017 0.9555589,-12.623373 2.5786836,-12.623373 1.6231259,0 2.1094596,6.417488 2.5786842,12.623373 0.2764239,3.648417 0.6938359,9.161605 1.2772919,9.161605 z"
     id="path14"
     style="fill:#60a2d7;stroke-width:0.036976" />
  <path
     class="cls-3"
     d="m 13.952049,18.376864 c -0.329184,-2.201231 -0.67746,-4.527931 -1.188019,-6.445201 -0.0034,-0.01322 -0.0071,-0.02696 -0.01078,-0.04017 -0.01755,-0.06493 -0.0351,-0.129871 -0.05297,-0.193707 l -0.02156,-0.07759 c -0.01477,-0.05228 -0.0308,-0.104011 -0.04465,-0.155188 l -0.02556,-0.08749 c -0.0194,-0.06603 -0.03941,-0.132079 -0.05974,-0.19701 -0.01448,-0.04788 -0.0308,-0.09465 -0.04465,-0.141428 L 12.48348,10.97415 C 12.46654,10.92297 12.44991,10.871792 12.43267,10.821163 L 12.4222,10.789793 C 12.012975,9.5790971 11.509498,8.6331199 10.861908,8.1301387 l -0.01417,-0.010965 q -0.04157,-0.031923 -0.08407,-0.061077 l -0.02864,-0.019258 c -0.02771,-0.018709 -0.05511,-0.036871 -0.08314,-0.055032 l -0.0068,-0.00379 c -0.05358,-0.031924 -0.108082,-0.059981 -0.163509,-0.086407 l -0.05389,-0.02422 -0.06651,-0.026961 -0.06467,-0.022547 c -0.02064,-0.00717 -0.04126,-0.014309 -0.06159,-0.020368 -0.03079,-0.00942 -0.06159,-0.017051 -0.09454,-0.02422 l -0.06498,-0.013776 c -0.03264,-0.00605 -0.0659,-0.012089 -0.099463,-0.015968 l -0.020317,-0.00337 c 0,0 0,0 0,0 C 9.889716,7.7344497 9.8228963,7.7295277 9.7545353,7.7295277 H 9.6929893 C 7.0847698,7.7333177 6.2388688,13.388336 5.492122,18.376875 4.9504623,21.994048 4.3909428,25.733384 3.3950765,25.733384 v 2.251311 c 1.9627861,0 2.6174598,-4.383199 3.3124704,-9.025046 C 7.3566762,14.624328 8.0264387,10.14593 9.626783,9.9835904 l 0.1896891,0.010368 v -0.00929 a 1.4676243,2.6227656 0 0 1 0.2833019,0.070435 c 0.01662,0.0071 0.03326,0.01486 0.04958,0.02366 l 0.01169,0.0055 c 0.785855,0.410528 1.325973,1.989912 1.75924,4.032104 l 0.01477,0.06989 0.01477,0.07099 c 0.296236,1.430797 0.542584,3.076769 0.785855,4.702376 0.694397,4.640742 1.350299,9.025045 3.313397,9.025045 v -2.251374 c -0.99587,0 -1.555697,-3.739338 -2.097049,-7.356508 z"
     id="path12-3"
     style="fill:#8cb28c;fill-opacity:0.200887;stroke-width:0.0411655" />
  <path
     class="cls-3"
     d="m 19.489399,19.699113 c -0.501848,-1.898293 -1.032801,-3.904788 -1.811159,-5.5582 -0.0052,-0.0114 -0.01086,-0.02325 -0.01643,-0.03464 -0.02675,-0.056 -0.05351,-0.111998 -0.08076,-0.167049 l -0.03286,-0.06691 c -0.02252,-0.04509 -0.04696,-0.0897 -0.06807,-0.133831 l -0.03897,-0.07545 c -0.02957,-0.05694 -0.06009,-0.113902 -0.09107,-0.169897 -0.02208,-0.04129 -0.04696,-0.08162 -0.06807,-0.121965 l -0.03147,-0.05599 c -0.02583,-0.04414 -0.05117,-0.08827 -0.07746,-0.131932 l -0.01596,-0.02705 c -0.623879,-1.044078 -1.39144,-1.859868 -2.378705,-2.293628 l -0.0216,-0.0095 q -0.06337,-0.02753 -0.128167,-0.05267 l -0.04367,-0.01661 c -0.04225,-0.01613 -0.08401,-0.0318 -0.126749,-0.04746 l -0.01039,-0.0033 c -0.08169,-0.02753 -0.164773,-0.05173 -0.249273,-0.07451 l -0.08216,-0.02089 -0.101391,-0.02325 -0.09859,-0.01944 c -0.03146,-0.0062 -0.06289,-0.01234 -0.09389,-0.01756 -0.04694,-0.0081 -0.09389,-0.0147 -0.144128,-0.02089 l -0.09906,-0.01188 c -0.04976,-0.0052 -0.100471,-0.01043 -0.151629,-0.01377 l -0.03098,-0.0029 c 0,0 0,0 0,0 -0.10047,-0.0067 -0.202339,-0.01091 -0.306557,-0.01091 h -0.09382 c -3.9762592,0.0033 -5.2658533,4.880032 -6.4042843,9.182038 -0.8257714,3.119371 -1.6787704,6.344092 -3.1969892,6.344092 v 1.941481 c 2.992308,0 3.9903716,-3.779974 5.0499297,-7.783001 0.9896113,-3.738686 2.0106788,-7.600758 4.4504358,-7.740756 l 0.289185,0.0089 v -0.008 a 2.2374235,2.2618154 0 0 1 0.4319,0.06074 c 0.02533,0.0061 0.0507,0.01282 0.07559,0.0204 l 0.01782,0.0047 c 1.198051,0.354031 2.021473,1.716057 2.681997,3.477198 l 0.02252,0.06027 0.02252,0.06122 c 0.451617,1.233888 0.82718,2.653338 1.198051,4.055226 1.058623,4.002073 2.058559,7.783 5.051342,7.783 v -1.941536 c -1.518224,0 -2.371692,-3.224722 -3.196994,-6.34409 z"
     id="path12-3-6"
     style="fill:#8cb28c;fill-opacity:0.49702108;stroke-width:0.0472007" />
</svg>
