<?xml version="1.0" encoding="UTF-8" standalone="no"?>
<svg
   width="24"
   height="24"
   viewBox="0 0 24 24"
   version="1.1"
   id="svg10"
   sodipodi:docname="check_menu.svg"
   inkscape:version="1.2.2 (b0a8486541, 2022-12-01)"
   xmlns:inkscape="http://www.inkscape.org/namespaces/inkscape"
   xmlns:sodipodi="http://sodipodi.sourceforge.net/DTD/sodipodi-0.dtd"
   xmlns="http://www.w3.org/2000/svg"
   xmlns:svg="http://www.w3.org/2000/svg"
   xmlns:rdf="http://www.w3.org/1999/02/22-rdf-syntax-ns#"
   xmlns:cc="http://creativecommons.org/ns#"
   xmlns:dc="http://purl.org/dc/elements/1.1/">
  <title
     id="title1117">Image Check</title>
  <defs
     id="defs14" />
  <sodipodi:namedview
     id="namedview12"
     pagecolor="#ffffff"
     bordercolor="#666666"
     borderopacity="1.0"
     inkscape:showpageshadow="2"
     inkscape:pageopacity="0"
     inkscape:pagecheckerboard="0"
     inkscape:deskcolor="#d1d1d1"
     showgrid="false"
     inkscape:zoom="14.447506"
     inkscape:cx="20.903262"
     inkscape:cy="17.857753"
     inkscape:window-width="1920"
     inkscape:window-height="1007"
     inkscape:window-x="0"
     inkscape:window-y="0"
     inkscape:window-maximized="1"
     inkscape:current-layer="svg10" />
  <!-- Monitor Stand -->
  <!-- Computer Monitor -->
  <!-- Tick Mark -->
  <metadata
     id="metadata1113">
    <rdf:RDF>
      <cc:Work
         rdf:about="">
        <dc:title>Image Check</dc:title>
        <dc:date>25/10/2023</dc:date>
        <dc:creator>
          <cc:Agent>
            <dc:title>Adrian Knagg-Baugh</dc:title>
          </cc:Agent>
        </dc:creator>
        <dc:rights>
          <cc:Agent>
            <dc:title>CC-BY-SA 3.0</dc:title>
          </cc:Agent>
        </dc:rights>
        <cc:license
           rdf:resource="http://creativecommons.org/licenses/by-sa/4.0/" />
        <dc:description>A computer monitor showing a stylized galaxy and a tick mark</dc:description>
      </cc:Work>
      <cc:License
         rdf:about="http://creativecommons.org/licenses/by-sa/4.0/">
        <cc:permits
           rdf:resource="http://creativecommons.org/ns#Reproduction" />
        <cc:permits
           rdf:resource="http://creativecommons.org/ns#Distribution" />
        <cc:requires
           rdf:resource="http://creativecommons.org/ns#Notice" />
        <cc:requires
           rdf:resource="http://creativecommons.org/ns#Attribution" />
        <cc:permits
           rdf:resource="http://creativecommons.org/ns#DerivativeWorks" />
        <cc:requires
           rdf:resource="http://creativecommons.org/ns#ShareAlike" />
      </cc:License>
    </rdf:RDF>
  </metadata>
  <rect
     x="8.8252563"
     y="18.625238"
     width="6.2060599"
     height="3.0827677"
     fill="#333333"
     id="rect2"
     style="stroke:#bebebe;stroke-width:0.727273;stroke-dasharray:none;stroke-opacity:1" />
  <rect
     x="0.29192314"
     y="3.2114"
     width="23.272726"
     height="15.413837"
     rx="1.551515"
     fill="#333333"
     id="rect4"
     style="stroke:#bebebe;stroke-width:0.727273;stroke-dasharray:none;stroke-opacity:1" />
  <rect
     x="1.8434374"
     y="4.7527843"
     width="20.169695"
     height="12.331071"
     rx="0.77575749"
     fill="#dddddd"
     id="rect6"
     style="stroke-width:0.154644" />
  <g
     id="g955"
     transform="matrix(0.38886286,0,0,0.34966725,6.8589342,6.1320913)">
    <path
       d="m 14.343534,-0.1 c -2.185152,0 -5.0526438,0.78617536 -7.3603395,2.6414797 -2.3076957,1.8553044 -4.15625,4.6912103 -4.15625,8.2500003 0,2.371072 0.493163,4.339001 1.9263676,6.295801 1.4332046,1.9568 3.8909194,3.922949 6.4486329,3.922949 2.91094,0 5.6875,-2.088002 5.6875,-5.09375 0,-0.633932 -0.0968,-1.271629 -0.40625,-1.84375 -0.309445,-0.572121 -1.01954,-1.128243 -1.8125,-1.0625 -0.523695,0.01622 -0.98539,0.507568 -0.969025,1.031259 0.01637,0.52369 0.507839,0.98525 1.031525,0.968741 0.07013,0.129653 0.15625,0.512377 0.15625,0.90625 0,1.728432 -1.72466,3.09375 -3.6875,3.09375 -1.8002283,0 -3.3688753,-1.037972 -4.5312505,-2.625 -1.1623752,-1.587028 -1.84375,-3.692736 -1.84375,-5.59375 0,-2.8659506 1.4778282,-5.1119947 3.4375,-6.6875003 1.9596725,-1.5755056 4.6093925,-2.7501094 7.3938465,-2.7501094 4.556775,0 6.12658,0.9436788 7.825013,1.9319338 1.237079,0.7198105 2.417167,2.0089773 3.400575,2.9815915 C 26.216994,4.8101273 24.831719,3.2189844 23.747746,2.4680662 22.7332,1.7652433 21.48554,1.074122 19.215231,0.46579444 18.021093,0.14582611 16.271077,-0.1 14.343534,-0.1 Z"
       color="#000000"
       font-family="Sans"
       font-weight="400"
       overflow="visible"
       style="line-height:normal;-inkscape-font-specification:Sans;text-indent:0;text-align:start;text-transform:none;marker:none"
       id="path943" />
    <path
       d="m 17.983195,8.1039797 c -4.822251,0 -7.148108,3.3092133 -7.21875,5.8125003 -0.02377,0.842281 0.103425,1.556361 0.46875,2.125 0.365325,0.568639 1.047543,0.950492 1.71875,0.90625 0.523692,-0.008 0.99283,-0.49194 0.984647,-1.015629 -0.0082,-0.52369 -0.49221,-0.992696 -1.015897,-0.984371 -0.05965,-0.09284 -0.172277,-0.400808 -0.15625,-0.96875 0.03716,-1.316733 1.288041,-3.875 5.21875,-3.875 4.006591,0 6.5,3.566586 6.5,6.65625 0,2.968371 -1.153908,5.508266 -3.28125,7.34375 -2.127342,1.835484 -5.320249,3.254803 -9.372355,3.254803 -3.6575383,0 -6.0700778,-1.463022 -8.0048042,-2.859618 -1.3956287,-1.007444 -3.01520218,-3.677488 -3.92478607,-5.684755 0.25578281,2.308476 1.34494867,4.863536 2.89040547,6.492938 1.9387327,2.044039 5.1045841,3.479329 9.2680268,3.479329 4.432774,0 7.902582,-0.979581 10.456013,-3.182697 2.553431,-2.203116 3.96875,-5.347471 3.96875,-8.84375 0,-4.159976 -3.320171,-8.6562503 -8.5,-8.6562503 z"
       color="#000000"
       font-family="Sans"
       font-weight="400"
       overflow="visible"
       style="line-height:normal;-inkscape-font-specification:Sans;text-indent:0;text-align:start;text-transform:none;marker:none"
       id="path945" />
  </g>
  <ellipse
     style="fill:none;stroke:#000000;stroke-width:1.07224;stroke-dasharray:none;stroke-opacity:1"
     id="path1171"
     cx="12.219105"
     cy="11.354443"
     rx="0.60364366"
     ry="0.39835867" />
  <path
     d="m 6.8128569,10.089964 3.8016301,5.207235 6.336051,-8.6787237"
     stroke="#00ff00"
     stroke-width="8.87037"
     stroke-linecap="round"
     stroke-linejoin="round"
     id="path8"
     style="fill:none;stroke:#00b300;stroke-width:3.14521;stroke-dasharray:none;stroke-opacity:0.8" />
</svg>
